<svg width="106" height="106" viewBox="0 0 106 106" fill="none" xmlns="http://www.w3.org/2000/svg">
<rect x="0.5" y="0.5" width="105" height="105" rx="5.5" stroke="#EDEDF0" stroke-dasharray="4 4"/>
<path d="M22.8677 58.9565V57.7124H24.0928C24.6006 57.7124 25.0153 57.577 25.3369 57.3062C25.6585 57.0353 25.8193 56.6841 25.8193 56.2524C25.8193 55.825 25.667 55.4865 25.3623 55.2368C25.0576 54.9871 24.6387 54.8623 24.1055 54.8623C23.5723 54.8623 23.1406 54.9893 22.8105 55.2432C22.4847 55.4971 22.3006 55.8483 22.2583 56.2969H20.9126C20.9591 55.4717 21.2723 54.82 21.8521 54.3418C22.4318 53.8594 23.1978 53.6182 24.1499 53.6182C25.0513 53.6182 25.7876 53.8467 26.3589 54.3037C26.9344 54.7607 27.2222 55.3532 27.2222 56.0811C27.2222 56.5889 27.0677 57.0374 26.7588 57.4268C26.4541 57.8118 26.0542 58.0615 25.5591 58.1758V58.2837C26.1642 58.3472 26.6551 58.5757 27.0317 58.9692C27.4084 59.3628 27.5967 59.8727 27.5967 60.499C27.5967 61.0111 27.4465 61.4766 27.146 61.8955C26.8455 62.3102 26.4351 62.6361 25.9146 62.873C25.394 63.1058 24.8143 63.2222 24.1753 63.2222C23.1808 63.2222 22.3683 62.9746 21.7378 62.4795C21.1115 61.9844 20.7772 61.3285 20.7349 60.5117H22.0996C22.1419 60.9518 22.3493 61.3031 22.7217 61.5654C23.0983 61.8236 23.5828 61.9526 24.1753 61.9526C24.7635 61.9526 25.2375 61.8109 25.5972 61.5273C25.9569 61.2438 26.1367 60.8757 26.1367 60.4229C26.1367 59.9658 25.9611 59.6082 25.6099 59.3501C25.2586 59.0877 24.7656 58.9565 24.1309 58.9565H22.8677ZM31.6084 61.9653C32.1204 61.9653 32.5457 61.8215 32.8843 61.5337C33.2271 61.2459 33.3984 60.8862 33.3984 60.4546V59.877L31.71 59.9849C31.236 60.0145 30.8869 60.1118 30.6626 60.2769C30.4383 60.4419 30.3262 60.6768 30.3262 60.9814C30.3262 61.2861 30.4447 61.5273 30.6816 61.7051C30.9186 61.8786 31.2275 61.9653 31.6084 61.9653ZM31.2593 63.1143C30.5822 63.1143 30.0278 62.9259 29.5962 62.5493C29.1688 62.1685 28.9551 61.667 28.9551 61.0449C28.9551 60.4271 29.1772 59.9425 29.6216 59.5913C30.0659 59.2358 30.7007 59.0327 31.5259 58.9819L33.3984 58.874V58.2773C33.3984 57.9092 33.2778 57.6278 33.0366 57.4331C32.7954 57.2342 32.4442 57.1348 31.9829 57.1348C31.6021 57.1348 31.2847 57.2025 31.0308 57.3379C30.7811 57.4691 30.6182 57.6574 30.542 57.9028H29.2217C29.2894 57.3104 29.5793 56.8385 30.0913 56.4873C30.6076 56.1318 31.2593 55.9541 32.0464 55.9541C32.9097 55.9541 33.5762 56.1593 34.0459 56.5698C34.5199 56.9761 34.7568 57.5452 34.7568 58.2773V63H33.4429V62.0288H33.335C33.1276 62.3758 32.842 62.6445 32.478 62.835C32.1183 63.0212 31.7121 63.1143 31.2593 63.1143ZM41.3711 57.2363H38.1846V63H36.8198V56.0874H41.3711V57.2363ZM46.5762 55.9731C47.4564 55.9731 48.1546 56.2948 48.6709 56.938C49.1872 57.577 49.4453 58.4445 49.4453 59.5405C49.4453 60.6366 49.1872 61.5062 48.6709 62.1494C48.1589 62.7926 47.4648 63.1143 46.5889 63.1143C46.098 63.1143 45.6663 63.0127 45.2939 62.8096C44.9215 62.6022 44.6444 62.3166 44.4624 61.9526H44.3545V65.2979H42.9897V56.0874H44.3037V57.23H44.4053C44.6126 56.8364 44.9089 56.5296 45.2939 56.3096C45.679 56.0853 46.1064 55.9731 46.5762 55.9731ZM46.189 61.8892C46.7687 61.8892 47.2215 61.6818 47.5474 61.2671C47.8774 60.8481 48.0425 60.2726 48.0425 59.5405C48.0425 58.8084 47.8774 58.235 47.5474 57.8203C47.2215 57.4056 46.7708 57.1982 46.1953 57.1982C45.6198 57.1982 45.1649 57.4098 44.8306 57.833C44.4963 58.252 44.3291 58.8232 44.3291 59.5469C44.3291 60.2663 44.4963 60.8376 44.8306 61.2607C45.1649 61.6797 45.6177 61.8892 46.189 61.8892ZM51.6416 65.5073C51.4046 65.5073 51.2163 65.4967 51.0767 65.4756V64.3013C51.174 64.3182 51.3221 64.3267 51.521 64.3267C51.8468 64.3267 52.1071 64.2526 52.3018 64.1045C52.4964 63.9564 52.653 63.7088 52.7715 63.3618L52.873 63.0254L50.3721 56.0874H51.8574L53.5903 61.5781H53.6982L55.4248 56.0874H56.8721L54.2949 63.2856C53.9987 64.1235 53.658 64.7033 53.2729 65.0249C52.8921 65.3465 52.3483 65.5073 51.6416 65.5073ZM60.6743 63.127C59.8914 63.127 59.2376 62.9471 58.7129 62.5874C58.1924 62.2277 57.9004 61.7114 57.8369 61.0386H59.1953C59.2673 61.339 59.4323 61.5697 59.6904 61.7305C59.9486 61.887 60.2765 61.9653 60.6743 61.9653C61.1271 61.9653 61.4784 61.8743 61.728 61.6924C61.9819 61.5062 62.1089 61.2565 62.1089 60.9434C62.1089 60.2874 61.6328 59.9595 60.6807 59.9595H59.665V58.8994H60.6616C61.4657 58.8994 61.8677 58.6011 61.8677 58.0044C61.8677 57.7378 61.7661 57.522 61.563 57.3569C61.3599 57.1919 61.0594 57.1094 60.6616 57.1094C60.2765 57.1094 59.9591 57.1877 59.7095 57.3442C59.464 57.4966 59.3201 57.7082 59.2778 57.979H57.9575C58.0295 57.3569 58.3045 56.8639 58.7827 56.5C59.2609 56.1361 59.8851 55.9541 60.6553 55.9541C61.4678 55.9541 62.0962 56.1255 62.5405 56.4683C62.9849 56.8068 63.207 57.2723 63.207 57.8647C63.207 58.2118 63.1055 58.5143 62.9023 58.7725C62.7035 59.0306 62.4411 59.1999 62.1152 59.2803V59.3882C62.5596 59.4897 62.896 59.6781 63.1245 59.9531C63.3573 60.224 63.4736 60.554 63.4736 60.9434C63.4736 61.6035 63.2197 62.1325 62.7119 62.5303C62.2041 62.9281 61.5249 63.127 60.6743 63.127ZM66.5967 63H65.2446V56.0874H66.5967V60.8418H66.7046L69.8594 56.0874H71.2114V63H69.8594V58.2202H69.7515L66.5967 63ZM78.4731 56.0874V57.2363H76.2959V63H74.9312V57.2363H72.7539V56.0874H78.4731ZM82.5864 59.3501H81.374V61.8511H82.5864C83.0011 61.8511 83.3312 61.7368 83.5767 61.5083C83.8221 61.2798 83.9448 60.9772 83.9448 60.6006C83.9448 60.224 83.82 59.9214 83.5703 59.6929C83.3249 59.4644 82.9969 59.3501 82.5864 59.3501ZM80.0093 63V56.0874H81.374V58.2075H82.688C83.4878 58.2075 84.1247 58.4233 84.5986 58.855C85.0726 59.2866 85.3096 59.8685 85.3096 60.6006C85.3096 61.3327 85.0726 61.9167 84.5986 62.3525C84.1247 62.7842 83.4878 63 82.688 63H80.0093ZM34.6172 80H33.2905V73.0874H35.0044L37.2324 78.0322H37.3403L39.5747 73.0874H41.2441V80H39.9111V75.2329H39.7905L37.7656 79.7207H36.7627L34.7378 75.2329H34.6172V80ZM47.4014 74.6045C47.0967 74.2786 46.6925 74.1157 46.189 74.1157C45.6854 74.1157 45.2707 74.2786 44.9448 74.6045C44.619 74.9303 44.437 75.3641 44.3989 75.9058H47.8901C47.8732 75.3599 47.7103 74.9261 47.4014 74.6045ZM47.8838 78.1338H49.1978C49.0412 78.7559 48.6984 79.2446 48.1694 79.6001C47.6447 79.9556 46.9888 80.1333 46.2017 80.1333C45.2114 80.1333 44.4307 79.8159 43.8594 79.1812C43.2923 78.5422 43.0088 77.6704 43.0088 76.5659C43.0088 75.4614 43.2965 74.5833 43.8721 73.9316C44.4476 73.2799 45.222 72.9541 46.1953 72.9541C47.1559 72.9541 47.9092 73.263 48.4551 73.8809C49.0052 74.4987 49.2803 75.3514 49.2803 76.439V76.915H44.3989V76.9912C44.4201 77.6006 44.5957 78.083 44.9258 78.4385C45.2559 78.7939 45.6938 78.9717 46.2397 78.9717C47.0734 78.9717 47.6214 78.6924 47.8838 78.1338ZM55.4312 78.8511V74.2363H53.0127L52.8223 76.8389C52.7503 77.7064 52.5705 78.3411 52.2827 78.7432V78.8511H55.4312ZM51.4829 81.8091H50.2134V78.8511H50.772C51.229 78.5718 51.4956 77.8778 51.5718 76.769L51.8257 73.0874H56.7959V78.8511H57.8687V81.8091H56.6055V80H51.4829V81.8091ZM60.6045 80H59.2524V73.0874H60.6045V77.8418H60.7124L63.8672 73.0874H65.2192V80H63.8672V75.2202H63.7593L60.6045 80ZM69.5928 78.9653C70.1048 78.9653 70.5301 78.8215 70.8687 78.5337C71.2114 78.2459 71.3828 77.8862 71.3828 77.4546V76.877L69.6943 76.9849C69.2204 77.0145 68.8713 77.1118 68.647 77.2769C68.4227 77.4419 68.3105 77.6768 68.3105 77.9814C68.3105 78.2861 68.429 78.5273 68.666 78.7051C68.903 78.8786 69.2119 78.9653 69.5928 78.9653ZM69.2437 80.1143C68.5666 80.1143 68.0122 79.9259 67.5806 79.5493C67.1532 79.1685 66.9395 78.667 66.9395 78.0449C66.9395 77.4271 67.1616 76.9425 67.606 76.5913C68.0503 76.2358 68.6851 76.0327 69.5103 75.9819L71.3828 75.874V75.2773C71.3828 74.9092 71.2622 74.6278 71.021 74.4331C70.7798 74.2342 70.4285 74.1348 69.9673 74.1348C69.5864 74.1348 69.269 74.2025 69.0151 74.3379C68.7655 74.4691 68.6025 74.6574 68.5264 74.9028H67.2061C67.2738 74.3104 67.5636 73.8385 68.0757 73.4873C68.592 73.1318 69.2437 72.9541 70.0308 72.9541C70.894 72.9541 71.5605 73.1593 72.0303 73.5698C72.5042 73.9761 72.7412 74.5452 72.7412 75.2773V80H71.4272V79.0288H71.3193C71.112 79.3758 70.8263 79.6445 70.4624 79.835C70.1027 80.0212 69.6965 80.1143 69.2437 80.1143Z" fill="#3164C6"/>
<path fill-rule="evenodd" clip-rule="evenodd" d="M42.2528 29.0016C42.253 25.826 44.8275 23.2518 48.0032 23.252L58.0003 23.2526C61.1759 23.2528 63.7501 25.8273 63.7499 29.0029L63.7493 39.0001C63.7491 42.1757 61.1746 44.7499 57.999 44.7497L48.0019 44.7491C44.8262 44.7489 42.252 42.1744 42.2522 38.9988L42.2528 29.0016ZM48.0031 24.752C45.6559 24.7518 43.753 26.6545 43.7528 29.0017L43.7522 38.9988C43.7521 41.3461 45.6548 43.249 48.002 43.2491L57.9991 43.2497C60.3463 43.2498 62.2492 41.3472 62.2493 39L62.2499 29.0028C62.2501 26.6556 60.3474 24.7527 58.0002 24.7526L48.0031 24.752Z" fill="#1F2234"/>
<path fill-rule="evenodd" clip-rule="evenodd" d="M52.9996 37.6062C52.5854 37.6062 52.2496 37.2704 52.2496 36.8562L52.2496 29.7148C52.2496 29.3006 52.5854 28.9648 52.9996 28.9648C53.4138 28.9648 53.7496 29.3006 53.7496 29.7148L53.7496 36.8562C53.7496 37.2704 53.4138 37.6062 52.9996 37.6062Z" fill="#1F2234"/>
<path fill-rule="evenodd" clip-rule="evenodd" d="M57.156 32.3258C56.8972 32.6493 56.4253 32.7017 56.1018 32.443L52.9997 29.9613L49.8975 32.443C49.574 32.7017 49.102 32.6493 48.8433 32.3258C48.5845 32.0024 48.637 31.5304 48.9604 31.2717L52.4687 28.4651C52.7791 28.2168 53.2202 28.2168 53.5307 28.4651L57.0389 31.2717C57.3623 31.5304 57.4148 32.0024 57.156 32.3258Z" fill="#1F2234"/>
<path fill-rule="evenodd" clip-rule="evenodd" d="M47.9648 39.7128C47.9648 39.2985 48.3006 38.9628 48.7148 38.9628H57.2845C57.6987 38.9628 58.0345 39.2985 58.0345 39.7128C58.0345 40.127 57.6987 40.4628 57.2845 40.4628H48.7148C48.3006 40.4628 47.9648 40.127 47.9648 39.7128Z" fill="#1F2234"/>
</svg>
