<svg width="80" height="80" viewBox="0 0 80 80" fill="none" xmlns="http://www.w3.org/2000/svg">
<path d="M61.369 41.019C61.2195 39.7853 60.9578 38.6639 60.6214 37.5797C61.6307 24.2339 54.341 15.748 50.1167 15.1125C45.7802 14.4769 43.2382 22.0657 42.9391 22.9629C41.3316 22.6639 40.3223 22.6265 40.3223 22.6265C40.3223 22.6265 39.3129 22.6639 37.7428 22.9629C37.7428 22.9255 35.1634 14.3648 30.5279 15.0377C26.341 15.6358 19.0139 24.1966 19.9858 37.5424C19.6868 38.6265 19.4251 39.748 19.2382 40.9816C16.883 58.5517 32.584 65.4676 40.3223 65.4676C48.0606 65.4676 63.7989 58.5517 61.369 41.019Z" fill="#E9F6FF"/>
<path d="M39 41.0474C39 40.4951 39.4477 40.0474 40 40.0474C40.5523 40.0474 41 40.4951 41 41.0474V53.0474C41 53.5996 40.5523 54.0474 40 54.0474C39.4477 54.0474 39 53.5996 39 53.0474V41.0474Z" fill="#1D85FF"/>
<path d="M46 46.0474C46.5523 46.0474 47 46.4951 47 47.0474C47 47.5996 46.5523 48.0474 46 48.0474L34 48.0474C33.4477 48.0474 33 47.5996 33 47.0474C33 46.4951 33.4477 46.0474 34 46.0474L46 46.0474Z" fill="#1D85FF"/>
<rect x="1" y="1" width="78" height="78" rx="39" stroke="#EDEDF0" stroke-opacity="0.2" stroke-width="2"/>
</svg>
