<svg width="34" height="34" viewBox="0 0 34 34" fill="none" xmlns="http://www.w3.org/2000/svg">
<circle cx="17" cy="17" r="17" fill="#1D85FF" fill-opacity="0.1"/>
<path d="M17 10C19.757 10 22 12.3854 22 15.3175C22 17.1728 20.0218 21.2645 18.5576 24.0309C17.8723 25.323 16.1277 25.323 15.4579 24.0309C13.9782 21.2645 12 17.1728 12 15.3175C12 12.3854 14.243 10 17 10ZM17 17.968C18.3863 17.968 19.4922 16.7753 19.4922 15.3175C19.4922 13.8597 18.3707 12.667 17 12.667C15.6293 12.667 14.5078 13.8597 14.5078 15.3175C14.5078 16.7918 15.6293 17.968 17 17.968Z" fill="#1D85FF"/>
</svg>
